<svg id="Layer_1" data-name="Layer 1" xmlns="http://www.w3.org/2000/svg" viewBox="0 0 400.5 342.68"><defs><style>.cls-1{fill:#FFFFFF;}</style></defs><title>Mesero</title><path class="cls-1" d="M424.42,188.34A164,164,0,0,0,287.1,42.93a27.14,27.14,0,1,0-54-3.64,27.8,27.8,0,0,0,.29,4A164,164,0,0,0,98.27,188.34a15,15,0,0,0,14.88,16.45h296.4A15,15,0,0,0,424.42,188.34Z" transform="translate(-24 -12.15)"/><path class="cls-1" d="M254.05,285.62l-98.86-12.91a.18.18,0,0,1,0-.34L231,244.77a30.26,30.26,0,0,0,9.95-5.88c2.7-2.44,5.19-5.66,5.19-9.22h-90.4a7.12,7.12,0,0,0-2.38.4L24,275.48l26.18,79.35,73-24.88a8.89,8.89,0,0,1,2.89-.48H259.25a29.13,29.13,0,0,0,20.3-8.22l74.8-72.43a46.37,46.37,0,0,0,10.79-16.07l.95-2.39a.5.5,0,0,0-.46-.69h-52.5a2.83,2.83,0,0,0-2,.81l-56,54.76A1.36,1.36,0,0,1,254.05,285.62Z" transform="translate(-24 -12.15)"/></svg>