<svg id="Layer_2" data-name="Layer 2" xmlns="http://www.w3.org/2000/svg" viewBox="0 0 323.71 278.76"><defs><style>.cls-1{fill:#FFFFFF;}.cls-2{fill:none;stroke:#FFFFFF;stroke-miterlimit:10;}</style></defs><title>Moto</title><path d="M319.1,245.11A34.94,34.94,0,1,0,354,280.05,34.94,34.94,0,0,0,319.1,245.11Zm.47,49.16A14.24,14.24,0,1,1,333.82,280,14.24,14.24,0,0,1,319.57,294.27Z" transform="translate(-56.02 -36.22)"/><path class="cls-1" d="M372.84,211.43c-26.68-16.5-42-16.88-61.58-18.75a.69.69,0,0,1-.63-.72c.45-7.59-5.08-60.89-5.08-60.89a.66.66,0,0,1,.59-.7c4.81-.5,35.6-4.72,35.6-33.07,0-29.74-40-28.84-42.66-28.75l-.15-.15L297,46.21a11.23,11.23,0,0,0-10.4-10c-.51,0-5,0-6.73,0H220.4a9.67,9.67,0,0,0-8.62,5.1,10.47,10.47,0,0,0,9,15.63h57.27s16.68,138,12.77,139.15c-31.49,9-47.54,41.17-47.54,41.17H193.75l-.52-34.44c0-17.52-15.79-28.29-27.18-33.79a46.67,46.67,0,0,0-20.26-4.53H64.05c-8.1,0-8.26,10.73-7.95,15.42.09,1.35.17,2.7.17,4.05,0,13.22,7.3,20.36,9.36,22.11a.66.66,0,0,1,.07.93c-1.8,2.11-8.15,11.22-8.15,34.47,0,25.06,28.31,35.35,32.52,36.74a.8.8,0,0,1,.54.71c.23,4.51,3,35.66,35,35.66,34.45,0,34.45-34.44,34.45-34.44h99.12c2.38-58.44,56.59-59.93,56.59-59.93,23.34,0,37.81,9.31,44.18,14.64A12.23,12.23,0,0,0,374.29,236a12,12,0,0,0,5.28-8.79C380.41,221.14,378,214.64,372.84,211.43ZM128.21,294.07a14.25,14.25,0,1,1,11.63-11.63A14.26,14.26,0,0,1,128.21,294.07Z" transform="translate(-56.02 -36.22)"/><path class="cls-2" d="M345.25-2.69" transform="translate(-56.02 -36.22)"/><path class="cls-1" d="M146.26,64.7H62.69a5.15,5.15,0,0,0-5.14,5.14v68.45a5.15,5.15,0,0,0,5.14,5.14h83.57a5.15,5.15,0,0,0,5.14-5.14V69.84A5.15,5.15,0,0,0,146.26,64.7ZM100.11,95.51c0,6.11-5.85,9.79-7.34,10.63v25.29a5.57,5.57,0,0,1-11.13,0v-25.1s-7.43-3.81-7.43-10.82V75.63a3.13,3.13,0,0,1,6.26,0V95.51a2.26,2.26,0,0,0,2.28,2.27,2,2,0,0,0,2.1-2.13V74.84a2.14,2.14,0,0,1,4.28,0V96a2,2,0,0,0,2.14,1.83,2.1,2.1,0,0,0,2.21-2.22s0,0,0,0V75.63a3.33,3.33,0,0,1,6.64,0Zm34.65,12.07a2.32,2.32,0,0,1-2.31,2.32H123v21.43a5.67,5.67,0,0,1-6.22,5.63,5.75,5.75,0,0,1-5.11-5.76V75.56a3.46,3.46,0,0,1,.91-2.37,1.62,1.62,0,0,1,1.13-.57h5.61a17.66,17.66,0,0,1,10.88,3.65c2.42,1.88,4.52,4.55,4.52,8.15Z" transform="translate(-56.02 -36.22)"/></svg>