<svg id="Layer_1" data-name="Layer 1" xmlns="http://www.w3.org/2000/svg" viewBox="0 0 602.28 568.97"><defs><style>.cls-1{fill:#00742d;stroke:#000;stroke-width:29px;}.cls-1,.cls-8{stroke-miterlimit:10;}.cls-2{fill:#e2e50f;}.cls-3{fill:#ee2f2c;}.cls-4{fill:#eeeb32;}.cls-5{fill:#fef300;}.cls-6{fill:#252223;}.cls-7,.cls-8{fill:#fff;}.cls-8{stroke:#fff;}</style></defs><title>Paninieto</title><circle class="cls-1" cx="357.8" cy="370.15" r="181.12"/><circle class="cls-2" cx="302.81" cy="329.49" r="10.66"/><circle class="cls-3" cx="357.8" cy="370.15" r="147.17"/><path class="cls-4" d="M298.61,316.15a116.38,116.38,0,0,0-10.2-42.35C255.13,202,185,249,168.78,258.49c-2.65,1.56-5.05,3.46-7.61,5.16C61.32,329.93,107.5,423.38,107.5,423.38c-26.27-96.44,60.41-148.1,60.41-148.1l26,219.33c.55.07,4.22,43.56-9.68,62.21a18.86,18.86,0,0,1-19.08,7,15,15,0,0,1-11.34-9.57A29.09,29.09,0,0,0,141,538.89l-1.89-1a16.14,16.14,0,0,0-7.4-2l-14.49-.37a.85.85,0,0,0-.87,1c1.39,6.28,12,33.86,37.06,39,0,0,70.55,14.42,70.55-88.31l-2.25-58.79S303.84,407.59,298.61,316.15Zm-80,97.47L196.43,253.77c51-24,64.17,49.53,64.17,49.53C280.86,417.75,218.57,413.62,218.57,413.62Z" transform="translate(-96.84 -10.61)"/><path class="cls-5" d="M691.49,246.29a1.11,1.11,0,0,0-2.1.22c-2.19,12.82-27.47,12.82-27.47,12.82-14.43-19.85-29.72-10-29.72-10s-10.92,8-19.18,28c-7,17.1-1.38,42.21.42,49.16a7.38,7.38,0,0,1-.17,4.34c-2.2,6.13-8.45,13.26-11.3,15.87a3.56,3.56,0,0,1-5.24-.44c-2-2.78-2.39-9-2.39-9l-7.88-73.09L599.6,259a6.26,6.26,0,0,0,3.2-2.63c.94-1.6.77-2.54.22-3.48a2,2,0,0,0-2.14-.85L584.37,256l-.48-9.57c0-1.52-1.25-1.37-2.37-.92a6.91,6.91,0,0,0-2.54,1.79l-9.16,10.1.14,7.28L558.87,269a3.76,3.76,0,0,0-2.45,4.51c.75,3.2,4.12,2,4.12,2l11-3.76,4.15,48.2c.39,4.17.9,8.33,1.57,12.47,2.54,15.69-5,23.37-5,23.37-22.57,24.55-37.92,4.48-37.92,4.48,23.83-25.89,23.75-48.36,23.8-48.68,0,0,1.7-19.32-15.12-18.89s-27.69,24.44-27.69,24.44c-6.62,12.76-1.45,52.95-1.45,52.95-2.7,16.14-8.69,23.06-11.67,25.06a4,4,0,0,1-4.78-.26c-4.25-3.7-4.68-15.83-4.68-15.83l-3.44-38.43c0-8.06-2.83-12.7-5.72-15.35-3.23-3-8.71-3.67-12.12-.91,0,0-11.35,7.34-17.47,53l-4.93-31.56c-.13-.89-.2-1.78-.29-2.68,0-.19,0-.37-.06-.54a4.36,4.36,0,0,0-4.5-3.56c-11.94.33-10.85,8.13-10.85,8.13l6.45,46.12c.62,3.82.95,6.73,1.11,8.88a19.55,19.55,0,0,1-1.42,9c-3,7.22-7.92,22-15,21.94s-6.34-10.89-6.34-10.89l-3.34-55.09a21,21,0,0,0-.54-5.13,5.29,5.29,0,0,0-7-3.53c-8.45,3.14-8.8,8.87-8.71,10.54,0,.53.06,1.06.07,1.58l1.2,58.25s-3.89,21-12.23,21-9-31-9-31c-.35.25.92-43.45-16.29-40.78-19.1,3-21.83,54.52-23.08,54.55l-4.72-23.39c-.68-3.36-1.19-6.75-1.74-10.13-.81-5-4.07-5-4.07-5-12.1.64-9.93,13.45-9.93,13.45s8.68,35.31,9.84,43.24c.92,6.25-2.7,20.55-4.26,26.27a18.38,18.38,0,0,1-3.28,6.59c-1.37,1.73-3.19,3.33-5.22,3.33-2.39,0-4.05-2-5.07-3.88a13.85,13.85,0,0,1-1.5-4.42l-8.38-49.15c-.48-2.86-.86-5.74-1.19-8.63-.37-3.12-1.55-8-5.4-8.22-5.85-.33-9.95,10.14-9.95,10.14a42.63,42.63,0,0,0-9.09-1.57,14.59,14.59,0,0,0-9.3,3.08c-22.65,18-17.25,73.14-17.25,73.14s2,22.41,19.43,23.69,25.94-24.82,25.94-24.82c5.08,10.33,12.51,9.29,12.51,9.29,12-.88,22.39-23.4,24.52-29,.09-.24.94-.1.95.16.3,10.09,3.16,12.57,6.05,13.18a8.11,8.11,0,0,0,8-2.77c2.67-3.39,2.82-8.4,2.61-11.48-.26-3.57-.66-9.42-.82-13l-1-20.07a109.23,109.23,0,0,1,2.14-27.53c2.89-13.83,5.63-13.22,5.63-13.22,5.59-1.52,7.69,13.22,8.41,21.32a143.49,143.49,0,0,0,3,19.22c2.67,11.79,7.41,26.71,14.31,26.95,11.42.4,22.85-28.74,22.85-28.74,6.92,12.41,13.26,11.53,13.26,11.53,12.68,1.12,27-33.95,27-33.95l1,10.89c0,5.52,6.51,4.64,6.51,4.64,12.76-.08,8.67-24.66,8.67-24.66-3.5-25.62,4.5-55.56,4.5-55.56s7.81-25,11.68,19.69,17.85,41,17.85,41c14.68-2.72,25.19-38.11,25.19-38.11,35.19,35.71,61.88-19.86,61.88-19.86a16,16,0,0,0,6.22,7.74,9.6,9.6,0,0,0,10.68-.46c10.16-7.32,20-28.74,20-28.74a21.94,21.94,0,0,0,7.81,7,19.3,19.3,0,0,0,20.69-2.3c31.44-25.1,18.91-74.22,18.54-74.51,13,.48,24.69-6.09,26.69-13.69A8.25,8.25,0,0,0,691.49,246.29ZM275.58,501.69c3.26.59-18.85,1.45-15.51-41.85,2.6-33.71,16.78-31.52,21.8-29.64a3.56,3.56,0,0,1,2.21,2.43,159.47,159.47,0,0,1,3.45,18.63c.44,3.4,1,6.79,1.76,10.15C291.81,472.78,296.25,501.88,275.58,501.69ZM529.14,353.42c-3.22-5.57-15.7-29.83,1.74-44.5a8.83,8.83,0,0,1,10-.95c6.49,3.75,13.11,14.58-10.23,45.54A.93.93,0,0,1,529.14,353.42Zm120.8-37.27c-5.89,5-14.52,7.8-19.35,1.82-8.18-10.15-18-34.26,5.34-63.41,0,0,4.45,14.09,20.46,11.31C656.39,265.87,667.32,301.3,649.94,316.15Z" transform="translate(-96.84 -10.61)"/><path d="M268.33,538.58s104.79,43,139.6-36.27c0,0,23.14-50.66,75.8-43.91,0,0,27.13-41.8,86.63-12.93A70.09,70.09,0,0,0,600,453c24.55.31,65.5-9.75,99.16-69.75,0,0-4.5,102.81-127.21,122.7,0,0-39,9.76-76.55-19.14C500.25,495.44,400.1,651.84,268.33,538.58Z" transform="translate(-96.84 -10.61)"/><path class="cls-6" d="M287.47,187.38s-42.06,16.74-58.61,0a15.06,15.06,0,0,1-4-12.78c1-7,4.23-18.5,14.12-26.64,0,0-21-15-7.84-36.78,8.5-14.09,33.67-30.23,50.37-39.85a112.43,112.43,0,0,1,54.33-15.46,96.58,96.58,0,0,1,17.63,1.28s22.89-44.66,74.29-46.53c0,0,33-.14,50.66,33.77,0,0,39.69-16.14,52.68,10.13s-44,63-44,63,18,141.15,15,143.56c0,0-85.55-1.34-146.72,41.44C355.39,302.55,292.14,197.55,287.47,187.38Z" transform="translate(-96.84 -10.61)"/><path class="cls-7" d="M268.46,156s10.46,4.06,14.35,21.26a2.57,2.57,0,0,1-1.45,2.89c-7.18,3.27-33.36,13.89-45.58,1.24a6.36,6.36,0,0,1-1-7.38c4.47-8.47,18-30.56,26.72-35.52,0,0-22.84.25-22.43-8.76,0,0,3.73-28.23,44.21-46.74,4-1.84,8.05-3.74,12-5.75,9.34-4.75,31.81-13.61,62-8.55,0,0,17-46.53,62.54-47s50,31.27,50,31.27,47-10.25,50.79,11.51-33,42.28-33,42.28l-1-12.76s12-4.25,10-5.5c0,0-27.52-3.51-32.77-16.51,0,0-10.23,40-54.79,38.77s-63.79-15.76-63.79-15.76C345.84,94.49,363.82,134,268.46,156Z" transform="translate(-96.84 -10.61)"/><path class="cls-8" d="M327.18,198.77c.63-4.67-14.21-32.83-15.63-47.13a4,4,0,0,1,1.64-3.58c6.25-4.61,29.72-19.51,31.32-18.13,1.42,1.24,21.83,55.11,36.79,78.1,1.36,2.11,1,.91.81-.34-3.17-25.87-27.75-73.91-26.72-81.13,0,0-.92-10,1.23-15.41.73-1.81,6.95-1.88,8.87-1.5,8.51,1.67,30.56,7.16,35.49,10.52a2.15,2.15,0,0,1,.85,1.23l20.86,80.21s-9.38-80.18-8.51-81.18c0,0,30.54-9.82,36-13.77a.61.61,0,0,1,.95.41L468.33,211,460.75,95.7a10.35,10.35,0,0,1,4.31-9.23c.84-.58,1.62-.9,2.16-.69,1.87.75,8.25,6.13,9.13,8.13.79,1.82,13.95,131.5,16.37,155.5a3.7,3.7,0,0,1-3.38,4.06c-16.73,1.34-83.43,6-129.3,36.72a3.36,3.36,0,0,1-4.85-1.13c-10.93-19-68.55-114.32-65.84-130.23,0,0,11.13-6.21,12.89-2.34S315.18,192.3,327.18,198.77Z" transform="translate(-96.84 -10.61)"/></svg>